<?xml version="1.0" encoding="UTF-8" ?>
<svg version="1.1" width="128" height="128" xmlns="http://www.w3.org/2000/svg" shape-rendering="crispEdges">
<rect x="0" y="0" width="128" height="8" fill="#8FD3FF" />
<rect x="0" y="8" width="56" height="2" fill="#8FD3FF" />
<rect x="56" y="8" width="32" height="8" fill="#C7DCD0" />
<rect x="88" y="8" width="40" height="2" fill="#8FD3FF" />
<rect x="0" y="10" width="46" height="2" fill="#8FD3FF" />
<rect x="46" y="10" width="10" height="14" fill="#C7DCD0" />
<rect x="88" y="10" width="8" height="24" fill="#C7DCD0" />
<rect x="96" y="10" width="32" height="2" fill="#8FD3FF" />
<rect x="0" y="12" width="40" height="2" fill="#8FD3FF" />
<rect x="40" y="12" width="6" height="28" fill="#C7DCD0" />
<rect x="96" y="12" width="6" height="44" fill="#C7DCD0" />
<rect x="102" y="12" width="26" height="2" fill="#8FD3FF" />
<rect x="0" y="14" width="36" height="2" fill="#8FD3FF" />
<rect x="36" y="14" width="4" height="36" fill="#C7DCD0" />
<rect x="102" y="14" width="4" height="44" fill="#C7DCD0" />
<rect x="106" y="14" width="22" height="2" fill="#8FD3FF" />
<rect x="0" y="16" width="32" height="2" fill="#8FD3FF" />
<rect x="32" y="16" width="4" height="56" fill="#C7DCD0" />
<rect x="56" y="16" width="8" height="2" fill="#C7DCD0" />
<rect x="64" y="16" width="14" height="2" fill="#000000" />
<rect x="78" y="16" width="10" height="2" fill="#C7DCD0" />
<rect x="106" y="16" width="4" height="42" fill="#C7DCD0" />
<rect x="110" y="16" width="18" height="2" fill="#8FD3FF" />
<rect x="0" y="18" width="26" height="2" fill="#8FD3FF" />
<rect x="26" y="18" width="6" height="56" fill="#C7DCD0" />
<rect x="56" y="18" width="4" height="2" fill="#C7DCD0" />
<rect x="60" y="18" width="4" height="2" fill="#000000" />
<rect x="64" y="18" width="14" height="6" fill="#AB947A" />
<rect x="78" y="18" width="2" height="4" fill="#000000" />
<rect x="80" y="18" width="8" height="4" fill="#C7DCD0" />
<rect x="110" y="18" width="4" height="42" fill="#C7DCD0" />
<rect x="114" y="18" width="14" height="2" fill="#8FD3FF" />
<rect x="0" y="20" width="22" height="2" fill="#8FD3FF" />
<rect x="22" y="20" width="4" height="56" fill="#C7DCD0" />
<rect x="56" y="20" width="2" height="2" fill="#C7DCD0" />
<rect x="58" y="20" width="2" height="2" fill="#000000" />
<rect x="60" y="20" width="4" height="8" fill="#AB947A" />
<rect x="114" y="20" width="2" height="42" fill="#C7DCD0" />
<rect x="116" y="20" width="12" height="2" fill="#8FD3FF" />
<rect x="0" y="22" width="20" height="2" fill="#8FD3FF" />
<rect x="20" y="22" width="2" height="56" fill="#C7DCD0" />
<rect x="56" y="22" width="2" height="2" fill="#000000" />
<rect x="58" y="22" width="2" height="10" fill="#AB947A" />
<rect x="78" y="22" width="2" height="14" fill="#AB947A" />
<rect x="80" y="22" width="2" height="2" fill="#000000" />
<rect x="82" y="22" width="6" height="2" fill="#C7DCD0" />
<rect x="116" y="22" width="4" height="40" fill="#C7DCD0" />
<rect x="120" y="22" width="8" height="2" fill="#8FD3FF" />
<rect x="0" y="24" width="16" height="2" fill="#8FD3FF" />
<rect x="16" y="24" width="4" height="54" fill="#C7DCD0" />
<rect x="46" y="24" width="8" height="2" fill="#C7DCD0" />
<rect x="54" y="24" width="2" height="2" fill="#000000" />
<rect x="56" y="24" width="2" height="14" fill="#AB947A" />
<rect x="64" y="24" width="2" height="2" fill="#AB947A" />
<rect x="66" y="24" width="4" height="12" fill="#3E3546" />
<rect x="70" y="24" width="8" height="2" fill="#AB947A" />
<rect x="80" y="24" width="2" height="16" fill="#AB947A" />
<rect x="82" y="24" width="2" height="2" fill="#000000" />
<rect x="84" y="24" width="4" height="2" fill="#C7DCD0" />
<rect x="120" y="24" width="4" height="40" fill="#C7DCD0" />
<rect x="124" y="24" width="4" height="2" fill="#8FD3FF" />
<rect x="0" y="26" width="14" height="2" fill="#8FD3FF" />
<rect x="14" y="26" width="2" height="54" fill="#C7DCD0" />
<rect x="46" y="26" width="6" height="2" fill="#C7DCD0" />
<rect x="52" y="26" width="2" height="2" fill="#000000" />
<rect x="54" y="26" width="2" height="40" fill="#AB947A" />
<rect x="64" y="26" width="2" height="10" fill="#3E3546" />
<rect x="70" y="26" width="2" height="10" fill="#3E3546" />
<rect x="72" y="26" width="6" height="2" fill="#AB947A" />
<rect x="82" y="26" width="2" height="38" fill="#AB947A" />
<rect x="84" y="26" width="2" height="4" fill="#000000" />
<rect x="86" y="26" width="2" height="4" fill="#C7DCD0" />
<rect x="124" y="26" width="4" height="40" fill="#C7DCD0" />
<rect x="0" y="28" width="10" height="2" fill="#8FD3FF" />
<rect x="10" y="28" width="4" height="54" fill="#C7DCD0" />
<rect x="46" y="28" width="4" height="2" fill="#C7DCD0" />
<rect x="50" y="28" width="2" height="2" fill="#000000" />
<rect x="52" y="28" width="2" height="38" fill="#AB947A" />
<rect x="60" y="28" width="2" height="2" fill="#AB947A" />
<rect x="62" y="28" width="2" height="10" fill="#3E3546" />
<rect x="72" y="28" width="2" height="10" fill="#3E3546" />
<rect x="74" y="28" width="4" height="2" fill="#AB947A" />
<rect x="0" y="30" width="8" height="2" fill="#8FD3FF" />
<rect x="8" y="30" width="2" height="52" fill="#C7DCD0" />
<rect x="46" y="30" width="2" height="6" fill="#C7DCD0" />
<rect x="48" y="30" width="2" height="6" fill="#000000" />
<rect x="50" y="30" width="2" height="34" fill="#AB947A" />
<rect x="60" y="30" width="2" height="8" fill="#3E3546" />
<rect x="74" y="30" width="2" height="8" fill="#3E3546" />
<rect x="76" y="30" width="2" height="2" fill="#AB947A" />
<rect x="84" y="30" width="2" height="34" fill="#AB947A" />
<rect x="86" y="30" width="2" height="4" fill="#000000" />
<rect x="0" y="32" width="4" height="2" fill="#8FD3FF" />
<rect x="4" y="32" width="4" height="52" fill="#C7DCD0" />
<rect x="58" y="32" width="2" height="6" fill="#3E3546" />
<rect x="76" y="32" width="2" height="4" fill="#3E3546" />
<rect x="0" y="34" width="2" height="2" fill="#8FD3FF" />
<rect x="2" y="34" width="2" height="50" fill="#C7DCD0" />
<rect x="86" y="34" width="2" height="30" fill="#AB947A" />
<rect x="88" y="34" width="2" height="18" fill="#000000" />
<rect x="90" y="34" width="6" height="18" fill="#C7DCD0" />
<rect x="0" y="36" width="2" height="48" fill="#C7DCD0" />
<rect x="46" y="36" width="2" height="4" fill="#000000" />
<rect x="48" y="36" width="2" height="28" fill="#AB947A" />
<rect x="64" y="36" width="4" height="16" fill="#FDCBB0" />
<rect x="68" y="36" width="2" height="2" fill="#3E3546" />
<rect x="70" y="36" width="2" height="4" fill="#FDCBB0" />
<rect x="76" y="36" width="4" height="16" fill="#FDCBB0" />
<rect x="56" y="38" width="8" height="2" fill="#FDCBB0" />
<rect x="68" y="38" width="2" height="14" fill="#FDCBB0" />
<rect x="72" y="38" width="4" height="2" fill="#FDCBB0" />
<rect x="40" y="40" width="4" height="4" fill="#C7DCD0" />
<rect x="44" y="40" width="2" height="4" fill="#000000" />
<rect x="46" y="40" width="2" height="14" fill="#8A755D" />
<rect x="56" y="40" width="2" height="12" fill="#FDCBB0" />
<rect x="58" y="40" width="6" height="2" fill="#3E3546" />
<rect x="70" y="40" width="6" height="2" fill="#3E3546" />
<rect x="80" y="40" width="2" height="10" fill="#FDCBB0" />
<rect x="58" y="42" width="2" height="10" fill="#FDCBB0" />
<rect x="60" y="42" width="4" height="2" fill="#92A984" />
<rect x="70" y="42" width="2" height="10" fill="#FDCBB0" />
<rect x="72" y="42" width="4" height="2" fill="#92A984" />
<rect x="40" y="44" width="2" height="4" fill="#C7DCD0" />
<rect x="42" y="44" width="2" height="4" fill="#000000" />
<rect x="44" y="44" width="2" height="14" fill="#8A755D" />
<rect x="60" y="44" width="4" height="6" fill="#FDCBB0" />
<rect x="72" y="44" width="4" height="6" fill="#FDCBB0" />
<rect x="40" y="48" width="2" height="2" fill="#000000" />
<rect x="42" y="48" width="2" height="10" fill="#8A755D" />
<rect x="36" y="50" width="2" height="2" fill="#C7DCD0" />
<rect x="38" y="50" width="2" height="2" fill="#000000" />
<rect x="40" y="50" width="2" height="10" fill="#8A755D" />
<rect x="60" y="50" width="4" height="2" fill="#3E3546" />
<rect x="72" y="50" width="4" height="2" fill="#3E3546" />
<rect x="80" y="50" width="2" height="14" fill="#AB947A" />
<rect x="36" y="52" width="2" height="6" fill="#000000" />
<rect x="38" y="52" width="2" height="6" fill="#8A755D" />
<rect x="56" y="52" width="2" height="14" fill="#AB947A" />
<rect x="58" y="52" width="2" height="2" fill="#8A755D" />
<rect x="60" y="52" width="4" height="2" fill="#FDCBB0" />
<rect x="64" y="52" width="8" height="2" fill="#3E3546" />
<rect x="72" y="52" width="4" height="2" fill="#FDCBB0" />
<rect x="76" y="52" width="2" height="2" fill="#8A755D" />
<rect x="78" y="52" width="2" height="14" fill="#AB947A" />
<rect x="88" y="52" width="2" height="10" fill="#AB947A" />
<rect x="90" y="52" width="2" height="2" fill="#000000" />
<rect x="92" y="52" width="4" height="2" fill="#C7DCD0" />
<rect x="46" y="54" width="2" height="6" fill="#AB947A" />
<rect x="58" y="54" width="4" height="12" fill="#AB947A" />
<rect x="62" y="54" width="12" height="2" fill="#8A755D" />
<rect x="74" y="54" width="4" height="12" fill="#AB947A" />
<rect x="90" y="54" width="2" height="8" fill="#AB947A" />
<rect x="92" y="54" width="2" height="6" fill="#000000" />
<rect x="94" y="54" width="2" height="2" fill="#C7DCD0" />
<rect x="62" y="56" width="12" height="8" fill="#AB947A" />
<rect x="94" y="56" width="6" height="4" fill="#8FD3FF" />
<rect x="100" y="56" width="2" height="2" fill="#C7DCD0" />
<rect x="36" y="58" width="2" height="14" fill="#C7DCD0" />
<rect x="38" y="58" width="2" height="2" fill="#000000" />
<rect x="42" y="58" width="4" height="2" fill="#000000" />
<rect x="100" y="58" width="8" height="10" fill="#8FD3FF" />
<rect x="108" y="58" width="2" height="2" fill="#C7DCD0" />
<rect x="38" y="60" width="2" height="10" fill="#C7DCD0" />
<rect x="40" y="60" width="2" height="2" fill="#000000" />
<rect x="42" y="60" width="4" height="4" fill="#C7DCD0" />
<rect x="46" y="60" width="2" height="4" fill="#000000" />
<rect x="92" y="60" width="2" height="2" fill="#AB947A" />
<rect x="94" y="60" width="2" height="6" fill="#000000" />
<rect x="96" y="60" width="4" height="6" fill="#8FD3FF" />
<rect x="108" y="60" width="6" height="8" fill="#8FD3FF" />
<rect x="40" y="62" width="2" height="8" fill="#C7DCD0" />
<rect x="88" y="62" width="6" height="2" fill="#484A77" />
<rect x="114" y="62" width="4" height="12" fill="#8FD3FF" />
<rect x="118" y="62" width="2" height="2" fill="#C7DCD0" />
<rect x="42" y="64" width="2" height="4" fill="#C7DCD0" />
<rect x="44" y="64" width="2" height="4" fill="#000000" />
<rect x="46" y="64" width="2" height="2" fill="#8A755D" />
<rect x="48" y="64" width="4" height="6" fill="#323353" />
<rect x="62" y="64" width="4" height="2" fill="#AB947A" />
<rect x="66" y="64" width="8" height="2" fill="#000000" />
<rect x="80" y="64" width="4" height="2" fill="#000000" />
<rect x="84" y="64" width="2" height="2" fill="#484A77" />
<rect x="86" y="64" width="8" height="2" fill="#000000" />
<rect x="118" y="64" width="4" height="10" fill="#8FD3FF" />
<rect x="122" y="64" width="2" height="2" fill="#C7DCD0" />
<rect x="46" y="66" width="2" height="2" fill="#323353" />
<rect x="52" y="66" width="4" height="4" fill="#323353" />
<rect x="56" y="66" width="6" height="2" fill="#484A77" />
<rect x="62" y="66" width="4" height="2" fill="#000000" />
<rect x="66" y="66" width="2" height="2" fill="#676633" />
<rect x="68" y="66" width="6" height="2" fill="#4C3E24" />
<rect x="74" y="66" width="6" height="2" fill="#000000" />
<rect x="80" y="66" width="2" height="12" fill="#FDCBB0" />
<rect x="82" y="66" width="2" height="2" fill="#FCA790" />
<rect x="84" y="66" width="2" height="10" fill="#000000" />
<rect x="86" y="66" width="4" height="2" fill="#FDCBB0" />
<rect x="90" y="66" width="2" height="8" fill="#000000" />
<rect x="92" y="66" width="4" height="10" fill="#FDCBB0" />
<rect x="96" y="66" width="2" height="10" fill="#000000" />
<rect x="98" y="66" width="2" height="4" fill="#8FD3FF" />
<rect x="122" y="66" width="4" height="10" fill="#8FD3FF" />
<rect x="126" y="66" width="2" height="2" fill="#C7DCD0" />
<rect x="42" y="68" width="2" height="8" fill="#000000" />
<rect x="44" y="68" width="4" height="4" fill="#966C6C" />
<rect x="56" y="68" width="6" height="2" fill="#000000" />
<rect x="62" y="68" width="10" height="2" fill="#4C3E24" />
<rect x="72" y="68" width="6" height="6" fill="#A2A947" />
<rect x="78" y="68" width="2" height="4" fill="#000000" />
<rect x="82" y="68" width="2" height="12" fill="#FDCBB0" />
<rect x="86" y="68" width="2" height="6" fill="#FDCBB0" />
<rect x="88" y="68" width="2" height="2" fill="#FCA790" />
<rect x="100" y="68" width="6" height="2" fill="#8FD3FF" />
<rect x="106" y="68" width="4" height="2" fill="#000000" />
<rect x="110" y="68" width="4" height="2" fill="#8FD3FF" />
<rect x="126" y="68" width="2" height="60" fill="#8FD3FF" />
<rect x="38" y="70" width="4" height="4" fill="#8FD3FF" />
<rect x="48" y="70" width="2" height="2" fill="#966C6C" />
<rect x="50" y="70" width="6" height="2" fill="#000000" />
<rect x="56" y="70" width="16" height="6" fill="#A2A947" />
<rect x="88" y="70" width="2" height="10" fill="#FDCBB0" />
<rect x="98" y="70" width="10" height="2" fill="#000000" />
<rect x="108" y="70" width="2" height="2" fill="#FFFFFF" />
<rect x="110" y="70" width="2" height="4" fill="#000000" />
<rect x="112" y="70" width="2" height="2" fill="#8FD3FF" />
<rect x="32" y="72" width="6" height="4" fill="#8FD3FF" />
<rect x="44" y="72" width="2" height="2" fill="#966C6C" />
<rect x="46" y="72" width="4" height="2" fill="#000000" />
<rect x="50" y="72" width="6" height="4" fill="#A2A947" />
<rect x="78" y="72" width="2" height="2" fill="#A2A947" />
<rect x="98" y="72" width="6" height="2" fill="#A2A947" />
<rect x="104" y="72" width="6" height="2" fill="#000000" />
<rect x="112" y="72" width="2" height="2" fill="#000000" />
<rect x="26" y="74" width="2" height="2" fill="#C7DCD0" />
<rect x="28" y="74" width="4" height="6" fill="#8FD3FF" />
<rect x="38" y="74" width="2" height="2" fill="#8FD3FF" />
<rect x="40" y="74" width="2" height="2" fill="#000000" />
<rect x="44" y="74" width="2" height="2" fill="#000000" />
<rect x="46" y="74" width="4" height="2" fill="#A2A947" />
<rect x="72" y="74" width="2" height="2" fill="#A2A947" />
<rect x="74" y="74" width="6" height="14" fill="#676633" />
<rect x="86" y="74" width="2" height="2" fill="#FCA790" />
<rect x="90" y="74" width="2" height="4" fill="#FDCBB0" />
<rect x="98" y="74" width="4" height="2" fill="#A2A947" />
<rect x="102" y="74" width="4" height="10" fill="#676633" />
<rect x="106" y="74" width="4" height="2" fill="#000000" />
<rect x="110" y="74" width="2" height="10" fill="#676633" />
<rect x="112" y="74" width="2" height="2" fill="#A2A947" />
<rect x="114" y="74" width="6" height="2" fill="#000000" />
<rect x="120" y="74" width="2" height="2" fill="#8FD3FF" />
<rect x="22" y="76" width="2" height="2" fill="#C7DCD0" />
<rect x="24" y="76" width="4" height="6" fill="#8FD3FF" />
<rect x="32" y="76" width="4" height="2" fill="#8FD3FF" />
<rect x="36" y="76" width="4" height="2" fill="#000000" />
<rect x="40" y="76" width="4" height="2" fill="#A2A947" />
<rect x="44" y="76" width="12" height="10" fill="#676633" />
<rect x="56" y="76" width="14" height="2" fill="#A2A947" />
<rect x="70" y="76" width="4" height="14" fill="#676633" />
<rect x="84" y="76" width="4" height="2" fill="#FDCBB0" />
<rect x="92" y="76" width="2" height="2" fill="#FDCBB0" />
<rect x="94" y="76" width="2" height="2" fill="#000000" />
<rect x="96" y="76" width="6" height="8" fill="#676633" />
<rect x="106" y="76" width="4" height="8" fill="#676633" />
<rect x="112" y="76" width="4" height="6" fill="#676633" />
<rect x="116" y="76" width="4" height="2" fill="#A2A947" />
<rect x="120" y="76" width="4" height="2" fill="#000000" />
<rect x="124" y="76" width="2" height="2" fill="#8FD3FF" />
<rect x="16" y="78" width="2" height="2" fill="#C7DCD0" />
<rect x="18" y="78" width="6" height="8" fill="#8FD3FF" />
<rect x="32" y="78" width="4" height="2" fill="#000000" />
<rect x="36" y="78" width="2" height="2" fill="#A2A947" />
<rect x="38" y="78" width="6" height="10" fill="#676633" />
<rect x="56" y="78" width="14" height="8" fill="#676633" />
<rect x="80" y="78" width="2" height="2" fill="#000000" />
<rect x="84" y="78" width="2" height="2" fill="#000000" />
<rect x="86" y="78" width="2" height="2" fill="#FDCBB0" />
<rect x="90" y="78" width="4" height="2" fill="#000000" />
<rect x="94" y="78" width="2" height="6" fill="#676633" />
<rect x="116" y="78" width="6" height="2" fill="#676633" />
<rect x="122" y="78" width="2" height="2" fill="#A2A947" />
<rect x="124" y="78" width="2" height="8" fill="#000000" />
<rect x="14" y="80" width="4" height="10" fill="#8FD3FF" />
<rect x="28" y="80" width="2" height="2" fill="#8FD3FF" />
<rect x="30" y="80" width="2" height="2" fill="#000000" />
<rect x="32" y="80" width="2" height="2" fill="#A2A947" />
<rect x="34" y="80" width="4" height="10" fill="#676633" />
<rect x="80" y="80" width="2" height="8" fill="#676633" />
<rect x="82" y="80" width="2" height="2" fill="#000000" />
<rect x="84" y="80" width="2" height="4" fill="#676633" />
<rect x="86" y="80" width="4" height="2" fill="#000000" />
<rect x="90" y="80" width="4" height="4" fill="#676633" />
<rect x="116" y="80" width="2" height="2" fill="#676633" />
<rect x="118" y="80" width="6" height="6" fill="#4C3E24" />
<rect x="8" y="82" width="6" height="8" fill="#8FD3FF" />
<rect x="24" y="82" width="2" height="2" fill="#8FD3FF" />
<rect x="26" y="82" width="4" height="2" fill="#000000" />
<rect x="30" y="82" width="4" height="8" fill="#676633" />
<rect x="82" y="82" width="2" height="4" fill="#676633" />
<rect x="86" y="82" width="4" height="2" fill="#676633" />
<rect x="112" y="82" width="6" height="8" fill="#4C3E24" />
<rect x="0" y="84" width="8" height="10" fill="#8FD3FF" />
<rect x="24" y="84" width="2" height="2" fill="#000000" />
<rect x="26" y="84" width="4" height="8" fill="#676633" />
<rect x="84" y="84" width="6" height="6" fill="#4C3E24" />
<rect x="90" y="84" width="2" height="2" fill="#676633" />
<rect x="92" y="84" width="20" height="10" fill="#4C3E24" />
<rect x="18" y="86" width="2" height="2" fill="#8FD3FF" />
<rect x="20" y="86" width="4" height="2" fill="#000000" />
<rect x="24" y="86" width="2" height="6" fill="#676633" />
<rect x="44" y="86" width="2" height="2" fill="#676633" />
<rect x="46" y="86" width="16" height="6" fill="#4C3E24" />
<rect x="62" y="86" width="8" height="2" fill="#676633" />
<rect x="82" y="86" width="2" height="8" fill="#4C3E24" />
<rect x="90" y="86" width="2" height="6" fill="#4C3E24" />
<rect x="118" y="86" width="4" height="2" fill="#4C3E24" />
<rect x="122" y="86" width="2" height="2" fill="#000000" />
<rect x="124" y="86" width="2" height="42" fill="#8FD3FF" />
<rect x="18" y="88" width="2" height="2" fill="#000000" />
<rect x="20" y="88" width="2" height="10" fill="#4C3E24" />
<rect x="22" y="88" width="2" height="2" fill="#676633" />
<rect x="38" y="88" width="8" height="4" fill="#4C3E24" />
<rect x="62" y="88" width="6" height="10" fill="#4C3E24" />
<rect x="68" y="88" width="2" height="2" fill="#676633" />
<rect x="74" y="88" width="4" height="2" fill="#676633" />
<rect x="78" y="88" width="4" height="10" fill="#4C3E24" />
<rect x="118" y="88" width="2" height="2" fill="#4C3E24" />
<rect x="120" y="88" width="2" height="2" fill="#000000" />
<rect x="122" y="88" width="2" height="40" fill="#8FD3FF" />
<rect x="8" y="90" width="4" height="2" fill="#8FD3FF" />
<rect x="12" y="90" width="6" height="2" fill="#000000" />
<rect x="18" y="90" width="2" height="8" fill="#4C3E24" />
<rect x="22" y="90" width="2" height="6" fill="#4C3E24" />
<rect x="30" y="90" width="8" height="4" fill="#4C3E24" />
<rect x="68" y="90" width="10" height="8" fill="#4C3E24" />
<rect x="84" y="90" width="2" height="2" fill="#4C3E24" />
<rect x="86" y="90" width="4" height="2" fill="#000000" />
<rect x="112" y="90" width="4" height="2" fill="#4C3E24" />
<rect x="116" y="90" width="4" height="2" fill="#000000" />
<rect x="120" y="90" width="2" height="38" fill="#8FD3FF" />
<rect x="8" y="92" width="2" height="2" fill="#8FD3FF" />
<rect x="10" y="92" width="2" height="2" fill="#000000" />
<rect x="12" y="92" width="4" height="2" fill="#676633" />
<rect x="16" y="92" width="2" height="4" fill="#4C3E24" />
<rect x="24" y="92" width="6" height="4" fill="#4C3E24" />
<rect x="38" y="92" width="2" height="2" fill="#4C3E24" />
<rect x="40" y="92" width="10" height="2" fill="#000000" />
<rect x="50" y="92" width="12" height="2" fill="#4C3E24" />
<rect x="84" y="92" width="2" height="2" fill="#000000" />
<rect x="86" y="92" width="4" height="2" fill="#FDCBB0" />
<rect x="90" y="92" width="2" height="2" fill="#000000" />
<rect x="112" y="92" width="4" height="2" fill="#000000" />
<rect x="116" y="92" width="4" height="36" fill="#8FD3FF" />
<rect x="0" y="94" width="4" height="2" fill="#8FD3FF" />
<rect x="4" y="94" width="6" height="2" fill="#000000" />
<rect x="10" y="94" width="4" height="2" fill="#676633" />
<rect x="14" y="94" width="2" height="2" fill="#4C3E24" />
<rect x="30" y="94" width="4" height="2" fill="#4C3E24" />
<rect x="34" y="94" width="6" height="2" fill="#000000" />
<rect x="40" y="94" width="4" height="2" fill="#966C6C" />
<rect x="44" y="94" width="8" height="2" fill="#825C5C" />
<rect x="52" y="94" width="6" height="2" fill="#000000" />
<rect x="58" y="94" width="4" height="4" fill="#4C3E24" />
<rect x="82" y="94" width="2" height="6" fill="#000000" />
<rect x="84" y="94" width="4" height="4" fill="#FDCBB0" />
<rect x="88" y="94" width="2" height="2" fill="#000000" />
<rect x="90" y="94" width="16" height="2" fill="#4C3E24" />
<rect x="106" y="94" width="6" height="2" fill="#000000" />
<rect x="112" y="94" width="4" height="32" fill="#8FD3FF" />
<rect x="0" y="96" width="2" height="32" fill="#8FD3FF" />
<rect x="2" y="96" width="2" height="4" fill="#000000" />
<rect x="4" y="96" width="8" height="2" fill="#676633" />
<rect x="12" y="96" width="2" height="2" fill="#4C3E24" />
<rect x="14" y="96" width="4" height="2" fill="#676633" />
<rect x="22" y="96" width="2" height="6" fill="#676633" />
<rect x="24" y="96" width="2" height="4" fill="#4C3E24" />
<rect x="26" y="96" width="2" height="2" fill="#676633" />
<rect x="28" y="96" width="2" height="4" fill="#4C3E24" />
<rect x="30" y="96" width="4" height="2" fill="#000000" />
<rect x="34" y="96" width="4" height="10" fill="#8FD3FF" />
<rect x="38" y="96" width="2" height="10" fill="#000000" />
<rect x="40" y="96" width="2" height="4" fill="#966C6C" />
<rect x="42" y="96" width="8" height="14" fill="#825C5C" />
<rect x="50" y="96" width="4" height="4" fill="#000000" />
<rect x="54" y="96" width="2" height="8" fill="#484A77" />
<rect x="56" y="96" width="2" height="2" fill="#000000" />
<rect x="88" y="96" width="6" height="2" fill="#4C3E24" />
<rect x="94" y="96" width="12" height="2" fill="#000000" />
<rect x="106" y="96" width="6" height="28" fill="#8FD3FF" />
<rect x="4" y="98" width="2" height="2" fill="#676633" />
<rect x="6" y="98" width="12" height="2" fill="#000000" />
<rect x="18" y="98" width="4" height="2" fill="#676633" />
<rect x="26" y="98" width="2" height="8" fill="#4C3E24" />
<rect x="30" y="98" width="2" height="2" fill="#000000" />
<rect x="32" y="98" width="2" height="16" fill="#8FD3FF" />
<rect x="56" y="98" width="2" height="4" fill="#484A77" />
<rect x="58" y="98" width="6" height="2" fill="#000000" />
<rect x="64" y="98" width="6" height="2" fill="#676633" />
<rect x="70" y="98" width="6" height="2" fill="#4C3E24" />
<rect x="76" y="98" width="2" height="2" fill="#676633" />
<rect x="78" y="98" width="4" height="2" fill="#000000" />
<rect x="84" y="98" width="2" height="2" fill="#FDCBB0" />
<rect x="86" y="98" width="2" height="2" fill="#FCA790" />
<rect x="88" y="98" width="6" height="2" fill="#000000" />
<rect x="94" y="98" width="8" height="4" fill="#825C5C" />
<rect x="102" y="98" width="2" height="4" fill="#000000" />
<rect x="104" y="98" width="2" height="26" fill="#8FD3FF" />
<rect x="2" y="100" width="2" height="28" fill="#8FD3FF" />
<rect x="4" y="100" width="2" height="2" fill="#000000" />
<rect x="6" y="100" width="12" height="26" fill="#8FD3FF" />
<rect x="18" y="100" width="2" height="2" fill="#000000" />
<rect x="20" y="100" width="2" height="2" fill="#676633" />
<rect x="24" y="100" width="2" height="12" fill="#676633" />
<rect x="28" y="100" width="2" height="6" fill="#000000" />
<rect x="30" y="100" width="2" height="14" fill="#8FD3FF" />
<rect x="40" y="100" width="2" height="26" fill="#825C5C" />
<rect x="50" y="100" width="2" height="4" fill="#825C5C" />
<rect x="52" y="100" width="2" height="26" fill="#000000" />
<rect x="58" y="100" width="6" height="2" fill="#484A77" />
<rect x="64" y="100" width="8" height="2" fill="#000000" />
<rect x="72" y="100" width="4" height="2" fill="#676633" />
<rect x="76" y="100" width="2" height="2" fill="#000000" />
<rect x="78" y="100" width="8" height="6" fill="#484A77" />
<rect x="86" y="100" width="2" height="4" fill="#825C5C" />
<rect x="88" y="100" width="4" height="2" fill="#FCA790" />
<rect x="92" y="100" width="2" height="8" fill="#825C5C" />
<rect x="4" y="102" width="2" height="26" fill="#8FD3FF" />
<rect x="18" y="102" width="2" height="22" fill="#8FD3FF" />
<rect x="20" y="102" width="2" height="6" fill="#000000" />
<rect x="22" y="102" width="2" height="2" fill="#4C3E24" />
<rect x="56" y="102" width="4" height="20" fill="#323353" />
<rect x="60" y="102" width="12" height="2" fill="#484A77" />
<rect x="72" y="102" width="4" height="2" fill="#000000" />
<rect x="76" y="102" width="2" height="4" fill="#484A77" />
<rect x="88" y="102" width="2" height="6" fill="#753C54" />
<rect x="90" y="102" width="2" height="2" fill="#FCA790" />
<rect x="94" y="102" width="4" height="4" fill="#825C5C" />
<rect x="98" y="102" width="4" height="2" fill="#000000" />
<rect x="102" y="102" width="2" height="20" fill="#8FD3FF" />
<rect x="22" y="104" width="2" height="4" fill="#676633" />
<rect x="50" y="104" width="2" height="14" fill="#000000" />
<rect x="54" y="104" width="2" height="16" fill="#323353" />
<rect x="60" y="104" width="2" height="18" fill="#323353" />
<rect x="62" y="104" width="6" height="2" fill="#484A77" />
<rect x="68" y="104" width="8" height="18" fill="#323353" />
<rect x="86" y="104" width="2" height="2" fill="#484A77" />
<rect x="90" y="104" width="2" height="4" fill="#825C5C" />
<rect x="98" y="104" width="2" height="2" fill="#000000" />
<rect x="100" y="104" width="2" height="18" fill="#8FD3FF" />
<rect x="26" y="106" width="2" height="6" fill="#000000" />
<rect x="28" y="106" width="2" height="10" fill="#8FD3FF" />
<rect x="34" y="106" width="2" height="6" fill="#8FD3FF" />
<rect x="36" y="106" width="2" height="14" fill="#000000" />
<rect x="38" y="106" width="2" height="20" fill="#825C5C" />
<rect x="62" y="106" width="6" height="16" fill="#323353" />
<rect x="76" y="106" width="4" height="16" fill="#323353" />
<rect x="80" y="106" width="2" height="2" fill="#484A77" />
<rect x="82" y="106" width="6" height="16" fill="#323353" />
<rect x="94" y="106" width="4" height="2" fill="#000000" />
<rect x="98" y="106" width="2" height="16" fill="#8FD3FF" />
<rect x="20" y="108" width="2" height="16" fill="#8FD3FF" />
<rect x="22" y="108" width="2" height="4" fill="#000000" />
<rect x="80" y="108" width="2" height="14" fill="#323353" />
<rect x="88" y="108" width="4" height="12" fill="#323353" />
<rect x="92" y="108" width="2" height="16" fill="#000000" />
<rect x="94" y="108" width="4" height="12" fill="#8FD3FF" />
<rect x="42" y="110" width="6" height="14" fill="#825C5C" />
<rect x="48" y="110" width="2" height="4" fill="#000000" />
<rect x="22" y="112" width="2" height="10" fill="#8FD3FF" />
<rect x="24" y="112" width="2" height="2" fill="#000000" />
<rect x="26" y="112" width="2" height="6" fill="#8FD3FF" />
<rect x="34" y="112" width="2" height="8" fill="#C7DCD0" />
<rect x="24" y="114" width="2" height="6" fill="#8FD3FF" />
<rect x="30" y="114" width="4" height="14" fill="#C7DCD0" />
<rect x="48" y="114" width="2" height="4" fill="#825C5C" />
<rect x="28" y="116" width="2" height="12" fill="#C7DCD0" />
<rect x="26" y="118" width="2" height="10" fill="#C7DCD0" />
<rect x="48" y="118" width="2" height="6" fill="#000000" />
<rect x="50" y="118" width="2" height="10" fill="#C7DCD0" />
<rect x="24" y="120" width="2" height="8" fill="#C7DCD0" />
<rect x="34" y="120" width="2" height="4" fill="#000000" />
<rect x="36" y="120" width="2" height="4" fill="#825C5C" />
<rect x="54" y="120" width="2" height="2" fill="#966C6C" />
<rect x="88" y="120" width="4" height="4" fill="#966C6C" />
<rect x="94" y="120" width="4" height="4" fill="#C7DCD0" />
<rect x="22" y="122" width="2" height="6" fill="#C7DCD0" />
<rect x="54" y="122" width="2" height="2" fill="#753C54" />
<rect x="56" y="122" width="2" height="2" fill="#966C6C" />
<rect x="58" y="122" width="2" height="4" fill="#9BABB2" />
<rect x="60" y="122" width="28" height="2" fill="#966C6C" />
<rect x="98" y="122" width="6" height="6" fill="#C7DCD0" />
<rect x="18" y="124" width="4" height="4" fill="#C7DCD0" />
<rect x="34" y="124" width="2" height="4" fill="#C7DCD0" />
<rect x="36" y="124" width="2" height="2" fill="#000000" />
<rect x="42" y="124" width="4" height="2" fill="#825C5C" />
<rect x="46" y="124" width="2" height="2" fill="#000000" />
<rect x="48" y="124" width="2" height="4" fill="#C7DCD0" />
<rect x="54" y="124" width="4" height="2" fill="#323353" />
<rect x="60" y="124" width="24" height="2" fill="#966C6C" />
<rect x="84" y="124" width="10" height="2" fill="#323353" />
<rect x="94" y="124" width="2" height="4" fill="#000000" />
<rect x="96" y="124" width="2" height="4" fill="#C7DCD0" />
<rect x="104" y="124" width="6" height="4" fill="#C7DCD0" />
<rect x="110" y="124" width="2" height="2" fill="#8FD3FF" />
<rect x="6" y="126" width="10" height="2" fill="#8FD3FF" />
<rect x="16" y="126" width="2" height="2" fill="#C7DCD0" />
<rect x="36" y="126" width="2" height="2" fill="#C7DCD0" />
<rect x="38" y="126" width="8" height="2" fill="#000000" />
<rect x="46" y="126" width="2" height="2" fill="#C7DCD0" />
<rect x="52" y="126" width="2" height="2" fill="#C7DCD0" />
<rect x="54" y="126" width="2" height="2" fill="#000000" />
<rect x="56" y="126" width="38" height="2" fill="#C7DCD0" />
<rect x="110" y="126" width="4" height="2" fill="#C7DCD0" />
<rect x="114" y="126" width="2" height="2" fill="#8FD3FF" />
</svg>